<svg xmlns="http://www.w3.org/2000/svg">
    <path id="javascript" fill="#f7df1e" d="M0 0h24v24h-24zM22.034 18.276c-0.175-1.095-0.888-2.015-3.003-2.873-0.736-0.345-1.554-0.585-1.797-1.14-0.091-0.33-0.105-0.51-0.046-0.705 0.15-0.646 0.915-0.84 1.515-0.66 0.39 0.12 0.75 0.42 0.976 0.9 1.034-0.676 1.034-0.676 1.755-1.125-0.27-0.42-0.404-0.601-0.586-0.78-0.63-0.705-1.469-1.065-2.834-1.034l-0.705 0.089c-0.676 0.165-1.32 0.525-1.71 1.005-1.14 1.291-0.811 3.541 0.569 4.471 1.365 1.020 3.361 1.244 3.616 2.205 0.24 1.17-0.87 1.545-1.966 1.41-0.811-0.18-1.26-0.586-1.755-1.336l-1.83 1.051c0.21 0.48 0.45 0.689 0.81 1.109 1.74 1.756 6.090 1.666 6.871-1.004 0.029-0.090 0.24-0.705 0.074-1.65zM13.051 11.031h-2.248c0 1.938-0.009 3.864-0.009 5.805 0 1.232 0.063 2.363-0.138 2.711-0.33 0.689-1.18 0.601-1.566 0.48-0.396-0.196-0.597-0.466-0.83-0.855-0.063-0.105-0.11-0.196-0.127-0.196l-1.825 1.125c0.305 0.63 0.75 1.172 1.324 1.517 0.855 0.51 2.004 0.675 3.207 0.405 0.783-0.226 1.458-0.691 1.811-1.411 0.51-0.93 0.402-2.070 0.397-3.346 0.012-2.054 0-4.109 0-6.179z" />
    <path id="angular" fill="#dd0031" d="M9.93 12.645h4.134l-2.068-4.905zM11.996 0.009l-11.31 3.979 1.725 14.76 9.585 5.243 9.588-5.238 1.724-14.763zM19.054 18.306h-2.636l-1.42-3.501h-6.003l-1.42 3.501h-2.638l7.060-15.648z" />
    <path id="kuurs" fill="#6200ea" d="M9.604 8.18l4.4-6.38c0.834-1.2 1.906-1.8 3.227-1.8 1.072 0 2.002 0.381 2.789 1.144 0.783 0.765 1.176 1.675 1.176 2.738 0 0.784-0.207 1.479-0.624 2.079l-3.967 5.769 4.853 6.153c0.484 0.612 0.727 1.33 0.727 2.15 0 1.086-0.381 2.018-1.145 2.798-0.762 0.779-1.686 1.169-2.771 1.169-1.189 0-2.097-0.387-2.721-1.16l-5.943-7.417v4.089c0 1.168-0.202 2.074-0.607 2.722-0.737 1.177-1.803 1.766-3.213 1.766-1.282 0-2.276-0.436-2.979-1.299-0.66-0.799-0.99-1.856-0.99-3.172v-15.164c0-1.245 0.336-2.274 1.004-3.083 0.698-0.854 1.668-1.282 2.906-1.282 1.179 0 2.16 0.428 2.946 1.282 0.438 0.475 0.715 0.953 0.831 1.44 0.070 0.3 0.105 0.858 0.105 1.68v3.778z" />
    <path id="settings" d="M16 12c0-1.104-0.449-2.106-1.172-2.828s-1.724-1.172-2.828-1.172-2.106 0.449-2.828 1.172-1.172 1.724-1.172 2.828 0.449 2.106 1.172 2.828 1.724 1.172 2.828 1.172 2.106-0.449 2.828-1.172 1.172-1.724 1.172-2.828zM14 12c0 0.553-0.223 1.051-0.586 1.414s-0.861 0.586-1.414 0.586-1.051-0.223-1.414-0.586-0.586-0.861-0.586-1.414 0.223-1.051 0.586-1.414 0.861-0.586 1.414-0.586 1.051 0.223 1.414 0.586 0.586 0.861 0.586 1.414zM20.315 15.404c0.046-0.105 0.112-0.191 0.192-0.257 0.112-0.092 0.251-0.146 0.403-0.147h0.090c0.828 0 1.58-0.337 2.121-0.879s0.879-1.293 0.879-2.121-0.337-1.58-0.879-2.121-1.293-0.879-2.121-0.879h-0.159c-0.11-0.001-0.215-0.028-0.308-0.076-0.127-0.066-0.23-0.172-0.292-0.312-0.003-0.029-0.004-0.059-0.004-0.089-0.024-0.055-0.040-0.111-0.049-0.168 0.020-0.334 0.077-0.454 0.168-0.547l0.062-0.062c0.585-0.586 0.878-1.356 0.877-2.122s-0.294-1.536-0.881-2.122c-0.586-0.585-1.356-0.878-2.122-0.877s-1.536 0.294-2.12 0.879l-0.046 0.046c-0.083 0.080-0.183 0.136-0.288 0.166-0.14 0.039-0.291 0.032-0.438-0.033-0.101-0.044-0.187-0.11-0.253-0.19-0.092-0.112-0.146-0.251-0.147-0.403v-0.090c0-0.828-0.337-1.58-0.879-2.121s-1.293-0.879-2.121-0.879-1.58 0.337-2.121 0.879-0.879 1.293-0.879 2.121v0.159c-0.001 0.11-0.028 0.215-0.076 0.308-0.066 0.127-0.172 0.23-0.312 0.292-0.029 0.003-0.059 0.004-0.089 0.004-0.055 0.024-0.111 0.040-0.168 0.049-0.335-0.021-0.455-0.078-0.548-0.169l-0.062-0.062c-0.586-0.585-1.355-0.878-2.122-0.878s-1.535 0.294-2.122 0.882c-0.585 0.586-0.878 1.355-0.878 2.122s0.294 1.536 0.879 2.12l0.048 0.047c0.080 0.083 0.136 0.183 0.166 0.288 0.039 0.14 0.032 0.291-0.031 0.434-0.006 0.016-0.013 0.034-0.021 0.052-0.041 0.109-0.108 0.203-0.191 0.275-0.11 0.095-0.25 0.153-0.383 0.156h-0.090c-0.828 0-1.58 0.337-2.121 0.879s-0.879 1.294-0.879 2.122 0.337 1.58 0.879 2.121 1.293 0.879 2.121 0.879h0.159c0.11 0.001 0.215 0.028 0.308 0.076 0.128 0.067 0.233 0.174 0.296 0.321 0.024 0.055 0.040 0.111 0.049 0.168-0.020 0.334-0.077 0.454-0.168 0.547l-0.062 0.062c-0.585 0.586-0.878 1.356-0.877 2.122s0.294 1.536 0.881 2.122c0.586 0.585 1.356 0.878 2.122 0.877s1.536-0.294 2.12-0.879l0.047-0.048c0.083-0.080 0.183-0.136 0.288-0.166 0.14-0.039 0.291-0.032 0.434 0.031 0.016 0.006 0.034 0.013 0.052 0.021 0.109 0.041 0.203 0.108 0.275 0.191 0.095 0.11 0.153 0.25 0.156 0.383v0.092c0 0.828 0.337 1.58 0.879 2.121s1.293 0.879 2.121 0.879 1.58-0.337 2.121-0.879 0.879-1.293 0.879-2.121v-0.159c0.001-0.11 0.028-0.215 0.076-0.308 0.067-0.128 0.174-0.233 0.321-0.296 0.055-0.024 0.111-0.040 0.168-0.049 0.334 0.020 0.454 0.077 0.547 0.168l0.062 0.062c0.586 0.585 1.356 0.878 2.122 0.877s1.536-0.294 2.122-0.881c0.585-0.586 0.878-1.356 0.877-2.122s-0.294-1.536-0.879-2.12l-0.048-0.047c-0.080-0.083-0.136-0.183-0.166-0.288-0.039-0.14-0.032-0.291 0.031-0.434zM18.396 9.302c-0.012-0.201-0.038-0.297-0.076-0.382v0.080c0 0.043 0.003 0.084 0.008 0.125 0.021 0.060 0.043 0.119 0.068 0.177 0.004 0.090 0.005 0.091 0.005 0.092 0.249 0.581 0.684 1.030 1.208 1.303 0.371 0.193 0.785 0.298 1.211 0.303h0.18c0.276 0 0.525 0.111 0.707 0.293s0.293 0.431 0.293 0.707-0.111 0.525-0.293 0.707-0.431 0.293-0.707 0.293h-0.090c-0.637 0.003-1.22 0.228-1.675 0.603-0.323 0.266-0.581 0.607-0.75 0.993-0.257 0.582-0.288 1.21-0.127 1.782 0.119 0.423 0.341 0.814 0.652 1.136l0.072 0.073c0.196 0.196 0.294 0.45 0.294 0.707s-0.097 0.512-0.292 0.707c-0.197 0.197-0.451 0.295-0.709 0.295s-0.512-0.097-0.707-0.292l-0.061-0.061c-0.463-0.453-1.040-0.702-1.632-0.752-0.437-0.037-0.882 0.034-1.293 0.212-0.578 0.248-1.027 0.683-1.3 1.206-0.193 0.371-0.298 0.785-0.303 1.211v0.181c0 0.276-0.111 0.525-0.293 0.707s-0.43 0.292-0.706 0.292-0.525-0.111-0.707-0.293-0.293-0.431-0.293-0.707v-0.090c-0.015-0.66-0.255-1.242-0.644-1.692-0.284-0.328-0.646-0.585-1.058-0.744-0.575-0.247-1.193-0.274-1.756-0.116-0.423 0.119-0.814 0.341-1.136 0.652l-0.073 0.072c-0.196 0.196-0.45 0.294-0.707 0.294s-0.512-0.097-0.707-0.292c-0.197-0.197-0.295-0.451-0.295-0.709s0.097-0.512 0.292-0.707l0.061-0.061c0.453-0.463 0.702-1.040 0.752-1.632 0.037-0.437-0.034-0.882-0.212-1.293-0.248-0.578-0.683-1.027-1.206-1.3-0.371-0.193-0.785-0.298-1.211-0.303l-0.18 0.001c-0.276 0-0.525-0.111-0.707-0.293s-0.293-0.431-0.293-0.707 0.111-0.525 0.293-0.707 0.431-0.293 0.707-0.293h0.090c0.66-0.015 1.242-0.255 1.692-0.644 0.328-0.284 0.585-0.646 0.744-1.058 0.247-0.575 0.274-1.193 0.116-1.756-0.119-0.423-0.341-0.814-0.652-1.136l-0.073-0.073c-0.196-0.196-0.294-0.45-0.294-0.707s0.097-0.512 0.292-0.707c0.197-0.197 0.451-0.295 0.709-0.295s0.512 0.097 0.707 0.292l0.061 0.061c0.463 0.453 1.040 0.702 1.632 0.752 0.37 0.032 0.745-0.014 1.101-0.137 0.096-0.012 0.186-0.036 0.266-0.072-0.031 0.001-0.061 0.003-0.089 0.004-0.201 0.012-0.297 0.038-0.382 0.076h0.080c0.043 0 0.084-0.003 0.125-0.008 0.060-0.021 0.119-0.043 0.177-0.068 0.090-0.004 0.091-0.005 0.092-0.005 0.581-0.249 1.030-0.684 1.303-1.208 0.193-0.37 0.298-0.785 0.303-1.21v-0.181c0-0.276 0.111-0.525 0.293-0.707s0.431-0.293 0.707-0.293 0.525 0.111 0.707 0.293 0.293 0.431 0.293 0.707v0.090c0.003 0.637 0.228 1.22 0.603 1.675 0.266 0.323 0.607 0.581 0.996 0.751 0.578 0.255 1.206 0.286 1.778 0.125 0.423-0.119 0.814-0.341 1.136-0.652l0.073-0.072c0.196-0.196 0.45-0.294 0.707-0.294s0.512 0.097 0.707 0.292c0.197 0.197 0.295 0.451 0.295 0.709s-0.097 0.512-0.292 0.707l-0.061 0.061c-0.453 0.463-0.702 1.040-0.752 1.632-0.032 0.37 0.014 0.745 0.137 1.101 0.012 0.095 0.037 0.185 0.072 0.266-0.001-0.032-0.002-0.062-0.004-0.089z" />
    <path id="svelte" fill="#ff3e00" d="M20.68 3.17c-1.334-1.919-3.528-3.16-6.012-3.16-1.4 0-2.708 0.394-3.819 1.078l0.032-0.018-5.6 3.56c-1.501 0.951-2.565 2.477-2.884 4.261l-0.006 0.039c-0.070 0.362-0.11 0.778-0.11 1.203 0 1.144 0.289 2.221 0.797 3.162l-0.017-0.035c-0.462 0.683-0.795 1.492-0.945 2.364l-0.005 0.036c-0.067 0.36-0.105 0.774-0.105 1.196 0 1.486 0.474 2.862 1.279 3.984l-0.014-0.020c1.34 1.922 3.541 3.163 6.031 3.163 1.392 0 2.693-0.388 3.802-1.062l-0.032 0.018 5.6-3.56c1.497-0.953 2.557-2.479 2.874-4.262l0.006-0.038c0.069-0.36 0.108-0.773 0.108-1.196 0-1.143-0.288-2.219-0.796-3.159l0.017 0.035c0.666-1.032 1.062-2.293 1.062-3.647 0-1.479-0.473-2.848-1.276-3.963l0.014 0.020zM10.32 21.13c-0.335 0.091-0.719 0.143-1.115 0.143-1.505 0-2.835-0.751-3.636-1.898l-0.010-0.014c-0.65-0.9-0.89-2.010-0.7-3.11l0.11-0.53 0.1-0.33 0.3 0.2c0.66 0.5 1.4 0.86 2.19 1.1l0.2 0.070-0.020 0.2c-0.020 0.28 0.060 0.59 0.22 0.83 0.33 0.47 0.9 0.7 1.45 0.55 0.12-0.040 0.24-0.080 0.34-0.14l5.58-3.56c0.28-0.18 0.46-0.45 0.53-0.77 0.060-0.33-0.020-0.67-0.2-0.94-0.33-0.46-0.9-0.67-1.45-0.53-0.12 0.040-0.25 0.090-0.35 0.15l-2.11 1.34c-0.647 0.39-1.428 0.621-2.263 0.621-1.5 0-2.827-0.746-3.628-1.887l-0.009-0.014c-0.478-0.662-0.765-1.49-0.765-2.384 0-0.256 0.024-0.507 0.069-0.751l-0.004 0.025c0.203-1.105 0.854-2.029 1.754-2.591l0.016-0.009 5.57-3.56c0.35-0.22 0.73-0.38 1.14-0.5 1.8-0.47 3.7 0.24 4.76 1.76 0.478 0.664 0.764 1.494 0.764 2.39 0 0.446-0.071 0.876-0.202 1.279l0.008-0.029-0.1 0.33-0.29-0.2c-0.629-0.464-1.36-0.839-2.147-1.086l-0.053-0.014-0.2-0.060 0.020-0.2c0.020-0.29-0.060-0.6-0.22-0.84-0.33-0.47-0.9-0.67-1.45-0.53-0.12 0.040-0.24 0.080-0.34 0.14l-5.59 3.59c-0.28 0.19-0.46 0.45-0.52 0.78-0.060 0.32 0.020 0.67 0.2 0.93 0.32 0.47 0.9 0.67 1.44 0.53 0.13-0.040 0.25-0.080 0.35-0.14l2.13-1.36c0.35-0.23 0.74-0.4 1.14-0.51 1.81-0.47 3.7 0.24 4.76 1.77 0.65 0.9 0.9 2.010 0.72 3.1-0.198 1.102-0.842 2.025-1.734 2.591l-0.016 0.009-5.58 3.55c-0.334 0.205-0.718 0.379-1.125 0.501l-0.035 0.009z" />
    <path id="file-text" fill="orange" d="M17.586 7h-2.586v-2.586zM20.707 7.293l-6-6c-0.092-0.092-0.202-0.166-0.324-0.217s-0.253-0.076-0.383-0.076h-8c-0.828 0-1.58 0.337-2.121 0.879s-0.879 1.293-0.879 2.121v16c0 0.828 0.337 1.58 0.879 2.121s1.293 0.879 2.121 0.879h12c0.828 0 1.58-0.337 2.121-0.879s0.879-1.293 0.879-2.121v-12c0-0.276-0.112-0.526-0.293-0.707zM13 3v5c0 0.552 0.448 1 1 1h5v11c0 0.276-0.111 0.525-0.293 0.707s-0.431 0.293-0.707 0.293h-12c-0.276 0-0.525-0.111-0.707-0.293s-0.293-0.431-0.293-0.707v-16c0-0.276 0.111-0.525 0.293-0.707s0.431-0.293 0.707-0.293zM16 12h-8c-0.552 0-1 0.448-1 1s0.448 1 1 1h8c0.552 0 1-0.448 1-1s-0.448-1-1-1zM16 16h-8c-0.552 0-1 0.448-1 1s0.448 1 1 1h8c0.552 0 1-0.448 1-1s-0.448-1-1-1zM10 8h-2c-0.552 0-1 0.448-1 1s0.448 1 1 1h2c0.552 0 1-0.448 1-1s-0.448-1-1-1z" />
    <path id="help-circle" fill="deepskyblue" d="M23 12c0-3.037-1.232-5.789-3.222-7.778s-4.741-3.222-7.778-3.222-5.789 1.232-7.778 3.222-3.222 4.741-3.222 7.778 1.232 5.789 3.222 7.778 4.741 3.222 7.778 3.222 5.789-1.232 7.778-3.222 3.222-4.741 3.222-7.778zM21 12c0 2.486-1.006 4.734-2.636 6.364s-3.878 2.636-6.364 2.636-4.734-1.006-6.364-2.636-2.636-3.878-2.636-6.364 1.006-4.734 2.636-6.364 3.878-2.636 6.364-2.636 4.734 1.006 6.364 2.636 2.636 3.878 2.636 6.364zM10.033 9.332c0.183-0.521 0.559-0.918 1.022-1.14s1.007-0.267 1.528-0.083c0.458 0.161 0.819 0.47 1.050 0.859 0.183 0.307 0.284 0.665 0.286 1.037 0 0.155-0.039 0.309-0.117 0.464-0.080 0.16-0.203 0.325-0.368 0.49-0.709 0.709-1.831 1.092-1.831 1.092-0.524 0.175-0.807 0.741-0.632 1.265s0.741 0.807 1.265 0.632c0 0 1.544-0.506 2.613-1.575 0.279-0.279 0.545-0.614 0.743-1.010 0.2-0.4 0.328-0.858 0.328-1.369-0.004-0.731-0.204-1.437-0.567-2.049-0.463-0.778-1.19-1.402-2.105-1.724-1.042-0.366-2.135-0.275-3.057 0.167s-1.678 1.238-2.044 2.28c-0.184 0.521 0.090 1.092 0.611 1.275s1.092-0.091 1.275-0.611zM12 18c0.552 0 1-0.448 1-1s-0.448-1-1-1-1 0.448-1 1 0.448 1 1 1z" />
    <path id="video" fill="red" d="M22 8.943v6.114l-4.28-3.057zM3 4c-0.828 0-1.58 0.337-2.121 0.879s-0.879 1.293-0.879 2.121v10c0 0.828 0.337 1.58 0.879 2.121s1.293 0.879 2.121 0.879h11c0.828 0 1.58-0.337 2.121-0.879s0.879-1.293 0.879-2.121v-3.057l5.419 3.871c0.449 0.321 1.074 0.217 1.395-0.232 0.126-0.178 0.187-0.383 0.186-0.582v-10c0-0.552-0.448-1-1-1-0.218 0-0.42 0.070-0.581 0.186l-5.419 3.871v-3.057c0-0.828-0.337-1.58-0.879-2.121s-1.293-0.879-2.121-0.879zM3 6h11c0.276 0 0.525 0.111 0.707 0.293s0.293 0.431 0.293 0.707v10c0 0.276-0.111 0.525-0.293 0.707s-0.431 0.293-0.707 0.293h-11c-0.276 0-0.525-0.111-0.707-0.293s-0.293-0.431-0.293-0.707v-10c0-0.276 0.111-0.525 0.293-0.707s0.431-0.293 0.707-0.293z" />
    <path id="shopping-bag" fill="orchid" d="M19 5h-14l1.5-2h11zM21.794 5.392l-2.994-3.992c-0.196-0.261-0.494-0.399-0.8-0.4h-12c-0.326 0-0.616 0.156-0.8 0.4l-2.994 3.992c-0.043 0.056-0.081 0.117-0.111 0.182-0.065 0.137-0.096 0.283-0.095 0.426v14c0 0.828 0.337 1.58 0.879 2.121s1.293 0.879 2.121 0.879h14c0.828 0 1.58-0.337 2.121-0.879s0.879-1.293 0.879-2.121v-14c0-0.219-0.071-0.422-0.189-0.585-0.004-0.005-0.007-0.010-0.011-0.015zM4 7h16v13c0 0.276-0.111 0.525-0.293 0.707s-0.431 0.293-0.707 0.293h-14c-0.276 0-0.525-0.111-0.707-0.293s-0.293-0.431-0.293-0.707zM15 10c0 0.829-0.335 1.577-0.879 2.121s-1.292 0.879-2.121 0.879-1.577-0.335-2.121-0.879-0.879-1.292-0.879-2.121c0-0.552-0.448-1-1-1s-1 0.448-1 1c0 1.38 0.561 2.632 1.464 3.536s2.156 1.464 3.536 1.464 2.632-0.561 3.536-1.464 1.464-2.156 1.464-3.536c0-0.552-0.448-1-1-1s-1 0.448-1 1z" />
    <path id="react" fill="#61dafb" d="M12 9.861c-1.181 0-2.139 0.958-2.139 2.139s0.958 2.139 2.139 2.139v0c1.181 0 2.139-0.958 2.139-2.139s-0.958-2.139-2.139-2.139v0zM6.008 16.255l-0.472-0.12c-3.518-0.889-5.536-2.398-5.536-4.139s2.018-3.25 5.536-4.139l0.472-0.119 0.133 0.468c0.408 1.395 0.872 2.582 1.424 3.718l-0.061-0.14 0.101 0.213-0.101 0.213c-0.492 0.997-0.956 2.184-1.321 3.413l-0.042 0.165zM5.317 8.95c-2.674 0.751-4.315 1.9-4.315 3.046 0 1.145 1.641 2.294 4.315 3.046 0.384-1.215 0.785-2.223 1.247-3.197l-0.065 0.151c-0.398-0.824-0.799-1.832-1.133-2.871l-0.049-0.175zM17.992 16.255l-0.133-0.469c-0.408-1.394-0.872-2.58-1.425-3.715l0.061 0.138-0.101-0.213 0.101-0.213c0.492-0.997 0.956-2.183 1.322-3.412l0.042-0.166 0.133-0.468 0.473 0.119c3.517 0.889 5.535 2.398 5.535 4.14s-2.018 3.25-5.535 4.139zM17.501 11.996c0.48 1.039 0.877 2.060 1.182 3.046 2.675-0.752 4.315-1.901 4.315-3.046s-1.641-2.294-4.315-3.046c-0.383 1.214-0.784 2.223-1.246 3.196l0.064-0.15zM5.31 8.945l-0.133-0.467c-0.989-3.486-0.689-5.984 0.823-6.856 1.483-0.856 3.864 0.155 6.359 2.716l0.34 0.349-0.34 0.349c-0.86 0.893-1.655 1.861-2.371 2.89l-0.051 0.077-0.135 0.193-0.235 0.020c-1.406 0.113-2.697 0.329-3.948 0.645l0.163-0.035zM7.206 2.315c-0.268 0-0.505 0.058-0.705 0.173-0.994 0.573-1.17 2.565-0.485 5.253 0.908-0.214 2.011-0.391 3.135-0.494l0.098-0.007c0.671-0.948 1.344-1.778 2.067-2.561l-0.015 0.017c-1.56-1.519-3.037-2.381-4.095-2.381zM16.795 22.677c-0.001 0-0.001 0 0 0-1.425 0-3.255-1.073-5.154-3.023l-0.34-0.349 0.34-0.349c0.859-0.893 1.655-1.862 2.37-2.891l0.051-0.077 0.135-0.193 0.234-0.020c1.406-0.112 2.698-0.328 3.95-0.644l-0.163 0.035 0.472-0.119 0.134 0.468c0.987 3.484 0.688 5.983-0.824 6.854-0.337 0.194-0.741 0.308-1.171 0.308-0.012 0-0.024-0-0.035-0l0.002 0zM12.699 19.296c1.56 1.519 3.037 2.381 4.095 2.381h0.001c0.267 0 0.505-0.058 0.704-0.173 0.994-0.573 1.171-2.566 0.485-5.254-0.909 0.214-2.012 0.391-3.137 0.494l-0.098 0.007c-0.67 0.949-1.343 1.779-2.066 2.562l0.015-0.017zM18.69 8.945l-0.472-0.119c-1.090-0.282-2.381-0.498-3.704-0.605l-0.083-0.005-0.234-0.020-0.135-0.193c-0.766-1.106-1.561-2.075-2.428-2.974l0.007 0.007-0.34-0.349 0.34-0.349c2.494-2.56 4.874-3.571 6.359-2.716 1.512 0.872 1.812 3.37 0.824 6.855zM14.75 7.24c1.142 0.104 2.227 0.273 3.234 0.501 0.686-2.688 0.509-4.68-0.485-5.253-0.988-0.571-2.845 0.304-4.8 2.208 0.708 0.766 1.381 1.596 1.999 2.467l0.052 0.077zM7.206 22.677c-0.010 0-0.022 0-0.035 0-0.431 0-0.835-0.114-1.183-0.314l0.012 0.006c-1.512-0.871-1.812-3.369-0.823-6.854l0.132-0.468 0.472 0.119c1.155 0.291 2.429 0.496 3.785 0.609l0.235 0.020 0.134 0.193c0.767 1.106 1.563 2.075 2.429 2.976l-0.007-0.008 0.34 0.349-0.34 0.349c-1.898 1.95-3.728 3.023-5.151 3.023zM6.016 16.25c-0.686 2.688-0.509 4.681 0.485 5.254 0.987 0.563 2.843-0.305 4.8-2.208-0.707-0.766-1.381-1.596-2-2.468l-0.052-0.077c-1.222-0.11-2.325-0.287-3.401-0.533l0.168 0.032zM12 16.878c-0.823 0-1.669-0.036-2.516-0.106l-0.235-0.020-0.135-0.193c-0.408-0.576-0.854-1.268-1.273-1.979l-0.077-0.143c-0.339-0.568-0.728-1.299-1.087-2.046l-0.079-0.182-0.1-0.213 0.1-0.213c0.438-0.929 0.826-1.659 1.243-2.371l-0.077 0.143c0.414-0.716 0.869-1.43 1.35-2.122l0.135-0.193 0.235-0.020c0.754-0.068 1.631-0.106 2.517-0.106s1.763 0.039 2.629 0.114l-0.112-0.008 0.234 0.020 0.134 0.193c0.882 1.249 1.721 2.675 2.439 4.17l0.078 0.18 0.101 0.213-0.101 0.213c-0.793 1.674-1.632 3.1-2.579 4.443l0.062-0.093-0.134 0.193-0.234 0.020c-0.847 0.070-1.694 0.106-2.517 0.106zM9.803 15.794c1.48 0.111 2.914 0.111 4.395 0 0.753-1.084 1.484-2.328 2.12-3.627l0.076-0.171c-0.71-1.469-1.441-2.713-2.259-3.893l0.062 0.095c-0.658-0.053-1.424-0.083-2.197-0.083s-1.539 0.030-2.297 0.090l0.1-0.006c-0.756 1.085-1.488 2.33-2.123 3.63l-0.074 0.168c0.713 1.47 1.444 2.714 2.26 3.895l-0.063-0.097z" />
    <path id="sass" fill="#c69" d="M12 0c6.627 0 12 5.373 12 12s-5.373 12-12 12-12-5.373-12-12 5.373-12 12-12zM9.615 15.998c0.175 0.645 0.156 1.248-0.024 1.792l-0.065 0.18c-0.024 0.061-0.052 0.12-0.078 0.176-0.14 0.29-0.326 0.56-0.555 0.81-0.698 0.759-1.672 1.047-2.090 0.805-0.45-0.262-0.226-1.335 0.584-2.19 0.871-0.918 2.12-1.509 2.12-1.509v-0.003zM19.526 5.137c-0.542-2.133-4.077-2.834-7.422-1.645-1.989 0.707-4.144 1.818-5.693 3.267-1.843 1.721-2.136 3.221-2.015 3.848 0.427 2.211 3.457 3.657 4.703 4.73v0.006c-0.367 0.18-3.056 1.529-3.686 2.925-0.675 1.47 0.105 2.521 0.615 2.655 1.575 0.436 3.195-0.36 4.065-1.649 0.84-1.261 0.766-2.881 0.404-3.676 0.496-0.135 1.080-0.195 1.83-0.104 2.101 0.24 2.521 1.56 2.43 2.1-0.090 0.539-0.523 0.854-0.674 0.944-0.15 0.091-0.195 0.12-0.181 0.181 0.015 0.090 0.091 0.090 0.21 0.075 0.165-0.030 1.096-0.45 1.141-1.471 0.045-1.29-1.186-2.729-3.375-2.7-0.9 0.016-1.471 0.091-1.875 0.256-0.030-0.045-0.061-0.075-0.105-0.105-1.35-1.455-3.855-2.475-3.75-4.41 0.030-0.705 0.285-2.564 4.8-4.814 3.705-1.846 6.661-1.335 7.171-0.21 0.733 1.604-1.576 4.59-5.431 5.024-1.47 0.165-2.235-0.404-2.431-0.615-0.209-0.225-0.239-0.24-0.314-0.194-0.12 0.060-0.045 0.255 0 0.375 0.12 0.3 0.585 0.825 1.396 1.095 0.704 0.225 2.43 0.359 4.5-0.45 2.324-0.899 4.139-3.405 3.614-5.505z" />
    <path id="git" fill="#f05032" d="M23.546 10.93l-10.479-10.478c-0.604-0.603-1.582-0.603-2.188 0l-2.171 2.175 2.76 2.76c0.645-0.215 1.379-0.070 1.889 0.441 0.516 0.515 0.658 1.258 0.438 1.9l2.658 2.66c0.645-0.223 1.387-0.078 1.9 0.435 0.721 0.72 0.721 1.884 0 2.604-0.719 0.719-1.881 0.719-2.6 0-0.539-0.541-0.674-1.337-0.404-1.996l-2.489-2.476v6.525c0.176 0.086 0.342 0.203 0.488 0.348 0.713 0.721 0.713 1.883 0 2.6-0.719 0.721-1.889 0.721-2.609 0-0.719-0.719-0.719-1.879 0-2.598 0.182-0.18 0.387-0.316 0.605-0.406v-6.589c-0.217-0.091-0.424-0.222-0.6-0.401-0.545-0.545-0.676-1.342-0.396-2.009l-2.712-2.725-7.186 7.181c-0.6 0.605-0.6 1.584 0 2.189l10.48 10.477c0.604 0.604 1.582 0.604 2.186 0l10.43-10.43c0.605-0.603 0.605-1.582 0-2.187z" />
    <path id="framer" fill="#05f" d="M4 0h16v8h-8zM4 8h8l8 8h-16zM4 16h8v8z" />
    <path id="mongodb" fill="#47a248" d="M17.18 9.518c-1.263-5.56-4.242-7.387-4.562-8.086-0.352-0.493-0.733-1.432-0.733-1.432-0.002 0.019-0.004 0.031-0.005 0.049v0.013h-0.001c-0.002 0.015-0.003 0.025-0.004 0.039v0.015h-0.002c0 0.010-0.002 0.018-0.002 0.026v0.026h-0.003c-0.001 0.008-0.001 0.018-0.003 0.025v0.021h-0.002c0 0.007 0 0.015-0.002 0.021v0.020h-0.002c0 0.010-0.001 0.022-0.002 0.032v0.002c-0.003 0.017-0.006 0.034-0.009 0.050v0.008h-0.002c-0.001 0.004-0.003 0.008-0.003 0.012v0.017h-0.003v0.022h-0.005v0.018h-0.005v0.021h-0.004v0.019h-0.004v0.017h-0.006v0.014h-0.004v0.018h-0.004v0.014h-0.005v0.013h-0.003v0.015h-0.004c-0.001 0.001-0.001 0.003-0.001 0.004v0.010h-0.003c-0.001 0.002-0.001 0.004-0.001 0.006v0.006h-0.002c-0.001 0.003-0.002 0.008-0.002 0.010-0.003 0.007-0.007 0.014-0.010 0.021v0.002c-0.002 0.002-0.004 0.005-0.005 0.007v0.008h-0.004v0.008h-0.005v0.008h-0.003v0.010h-0.006v0.014h-0.004v0.004h-0.004v0.008h-0.004v0.011h-0.004v0.008h-0.006v0.011h-0.004v0.008h-0.005v0.008h-0.003v0.010h-0.005v0.008h-0.004v0.006h-0.004v0.008h-0.006v0.009h-0.004v0.006h-0.005v0.008h-0.004v0.011h-0.005v0.004h-0.003v0.008h-0.006v0.004h-0.004v0.010h-0.004v0.004h-0.004v0.008h-0.005v0.006h-0.003l-0.002 0.004v0.004h-0.002c-0.001 0.002-0.002 0.002-0.002 0.004v0.001h-0.001c-0.001 0.003-0.002 0.005-0.004 0.007v0.003h-0.001c-0.005 0.006-0.008 0.012-0.012 0.018v0.001c-0.002 0.002-0.007 0.006-0.009 0.010v0.002h-0.001c-0.001 0.001-0.003 0.002-0.003 0.003v0.003h-0.002l-0.003 0.003v0.001h-0.001c0 0.001-0.002 0.002-0.003 0.004v0.004h-0.003l-0.002 0.002v0.002h-0.002c0 0.002-0.002 0.002-0.002 0.003v0.003h-0.004c0 0.001-0.001 0.002-0.002 0.003v0.006h-0.003v0.004h-0.004v0.006h-0.004v0.008h-0.005v-0.008h-0.005v0.004h-0.004v0.006h-0.005v0.008h-0.005v0.004h-0.004v0.006h-0.004v0.004h-0.004v0.008h-0.006v0.004h-0.004v0.006h-0.005v0.004h-0.004v0.005h-0.005v0.010h-0.002v0.004h-0.006v0.005h-0.004v0.002h-0.004v0.004h-0.005v0.010h-0.004v0.004h-0.005v0.004h-0.004v0.006h-0.005v0.004h-0.005v0.004h-0.004v0.004h-0.004v0.010h-0.004v0.005h-0.006v0.004h-0.004v0.004h-0.005v0.006h-0.004v0.004h-0.005v0.007h-0.004v0.004h-0.006v0.006h-0.002v0.004h-0.004v0.004h-0.005v0.004h-0.004v0.006h-0.005v0.004h-0.003c-0.001 0.001-0.001 0.002-0.001 0.002v0.002h-0.002l-0.004 0.004c0 0-0.002 0.002-0.004 0.003v0.006h-0.004v0.005h-0.004v0.004h-0.004v0.004h-0.003l-0.003 0.003v0.003h-0.002l-0.002 0.002v0.003h-0.002c-0.005 0.006-0.007 0.010-0.014 0.016-0.002 0.002-0.008 0.007-0.012 0.010-0.012 0.008-0.027 0.021-0.039 0.032-0.008 0.005-0.016 0.012-0.022 0.017v0.001h-0.001c-0.016 0.013-0.031 0.025-0.049 0.039v0.001c-0.024 0.020-0.047 0.039-0.074 0.062v-0.001h-0.002c-0.057 0.047-0.117 0.1-0.186 0.159v0.001h-0.001c-0.169 0.148-0.37 0.338-0.595 0.568l-0.019 0.019c-1.36 1.407-3.503 4.339-3.729 9.077-0.020 0.392-0.016 0.773 0.006 1.144v0.009c0.109 1.867 0.695 3.461 1.428 4.756v0.001c0.292 0.516 0.607 0.985 0.926 1.405v0.001c1.102 1.455 2.227 2.317 2.514 2.526 0.441 1.023 0.4 2.779 0.4 2.779l0.644 0.215c0 0-0.131-1.701 0.053-2.522 0.057-0.257 0.192-0.476 0.349-0.662 0.106-0.075 0.42-0.301 0.797-0.645 0.018-0.019 0.028-0.036 0.044-0.054 1.521-1.418 4.362-4.91 3.388-10.599z" />
    <path id="briefcase" fill="yellow" d="M9 6v-1c0-0.276 0.111-0.525 0.293-0.707s0.431-0.293 0.707-0.293h4c0.276 0 0.525 0.111 0.707 0.293s0.293 0.431 0.293 0.707v1zM9 20v-12h6v12zM7 8v12h-3c-0.276 0-0.525-0.111-0.707-0.293s-0.293-0.431-0.293-0.707v-10c0-0.276 0.111-0.525 0.293-0.707s0.431-0.293 0.707-0.293zM17 6v-1c0-0.828-0.337-1.58-0.879-2.121s-1.293-0.879-2.121-0.879h-4c-0.828 0-1.58 0.337-2.121 0.879s-0.879 1.293-0.879 2.121v1h-3c-0.828 0-1.58 0.337-2.121 0.879s-0.879 1.293-0.879 2.121v10c0 0.828 0.337 1.58 0.879 2.121s1.293 0.879 2.121 0.879h16c0.828 0 1.58-0.337 2.121-0.879s0.879-1.293 0.879-2.121v-10c0-0.828-0.337-1.58-0.879-2.121s-1.293-0.879-2.121-0.879zM17 20v-12h3c0.276 0 0.525 0.111 0.707 0.293s0.293 0.431 0.293 0.707v10c0 0.276-0.111 0.525-0.293 0.707s-0.431 0.293-0.707 0.293z" />
    <path id="mic" d="M12 2c0.553 0 1.051 0.223 1.414 0.586s0.586 0.861 0.586 1.414v8c0 0.553-0.223 1.051-0.586 1.414s-0.861 0.586-1.414 0.586-1.051-0.223-1.414-0.586-0.586-0.861-0.586-1.414v-8c0-0.553 0.223-1.051 0.586-1.414s0.861-0.586 1.414-0.586zM12 0c-1.104 0-2.106 0.449-2.828 1.172s-1.172 1.724-1.172 2.828v8c0 1.104 0.449 2.106 1.172 2.828s1.724 1.172 2.828 1.172 2.106-0.449 2.828-1.172 1.172-1.724 1.172-2.828v-8c0-1.104-0.449-2.106-1.172-2.828s-1.724-1.172-2.828-1.172zM8 24h8c0.552 0 1-0.448 1-1s-0.448-1-1-1h-3v-2.062c1.809-0.226 3.432-1.056 4.657-2.281 1.446-1.447 2.343-3.448 2.343-5.657v-2c0-0.552-0.448-1-1-1s-1 0.448-1 1v2c0 1.657-0.67 3.156-1.757 4.243s-2.586 1.757-4.243 1.757-3.156-0.67-4.243-1.757-1.757-2.586-1.757-4.243v-2c0-0.552-0.448-1-1-1s-1 0.448-1 1v2c0 2.209 0.897 4.21 2.343 5.657 1.225 1.225 2.847 2.055 4.657 2.281v2.062h-3c-0.552 0-1 0.448-1 1s0.448 1 1 1z" />
    <path id="search" d="M16.041 15.856c-0.034 0.026-0.067 0.055-0.099 0.087s-0.060 0.064-0.087 0.099c-1.258 1.213-2.969 1.958-4.855 1.958-1.933 0-3.682-0.782-4.95-2.050s-2.050-3.017-2.050-4.95 0.782-3.682 2.050-4.95 3.017-2.050 4.95-2.050 3.682 0.782 4.95 2.050 2.050 3.017 2.050 4.95c0 1.886-0.745 3.597-1.959 4.856zM21.707 20.293l-3.675-3.675c1.231-1.54 1.968-3.493 1.968-5.618 0-2.485-1.008-4.736-2.636-6.364s-3.879-2.636-6.364-2.636-4.736 1.008-6.364 2.636-2.636 3.879-2.636 6.364 1.008 4.736 2.636 6.364 3.879 2.636 6.364 2.636c2.125 0 4.078-0.737 5.618-1.968l3.675 3.675c0.391 0.391 1.024 0.391 1.414 0s0.391-1.024 0-1.414z" />
    <path id="star" d="M8.598 1.038c-0.061-0.126-0.165-0.235-0.303-0.303-0.33-0.163-0.73-0.027-0.893 0.303l-1.905 3.859-4.261 0.623c-0.139 0.019-0.274 0.085-0.381 0.194-0.257 0.264-0.251 0.686 0.012 0.943l3.082 3.002-0.727 4.241c-0.024 0.138-0.004 0.287 0.067 0.423 0.171 0.326 0.575 0.451 0.901 0.28l3.809-2.003 3.81 2.003c0.124 0.066 0.272 0.093 0.423 0.067 0.363-0.062 0.607-0.407 0.545-0.77l-0.727-4.241 3.082-3.002c0.101-0.097 0.173-0.229 0.195-0.381 0.053-0.364-0.199-0.703-0.563-0.756l-4.26-0.623zM8 2.839l1.462 2.963c0.101 0.203 0.291 0.333 0.501 0.365l3.271 0.478-2.366 2.305c-0.163 0.159-0.227 0.379-0.192 0.59l0.558 3.255-2.924-1.538c-0.201-0.105-0.431-0.099-0.621 0l-2.924 1.538 0.558-3.255c0.039-0.224-0.039-0.441-0.192-0.59l-2.366-2.305 3.271-0.479c0.224-0.033 0.406-0.173 0.501-0.364z" />
    <path id="users" d="M12 14v-1.333c0-0.92-0.374-1.755-0.976-2.357s-1.437-0.976-2.357-0.976h-5.333c-0.92 0-1.755 0.374-2.357 0.976s-0.976 1.437-0.976 2.357v1.333c0 0.368 0.299 0.667 0.667 0.667s0.667-0.299 0.667-0.667v-1.333c0-0.553 0.223-1.051 0.586-1.414s0.861-0.586 1.414-0.586h5.333c0.553 0 1.051 0.223 1.414 0.586s0.586 0.861 0.586 1.414v1.333c0 0.368 0.299 0.667 0.667 0.667s0.667-0.299 0.667-0.667zM9.333 4.667c0-0.92-0.374-1.755-0.976-2.357s-1.437-0.976-2.357-0.976-1.755 0.374-2.357 0.976-0.976 1.437-0.976 2.357 0.374 1.755 0.976 2.357 1.437 0.976 2.357 0.976 1.755-0.374 2.357-0.976 0.976-1.437 0.976-2.357zM8 4.667c0 0.553-0.223 1.051-0.586 1.414s-0.861 0.586-1.414 0.586-1.051-0.223-1.414-0.586-0.586-0.861-0.586-1.414 0.223-1.051 0.586-1.414 0.861-0.586 1.414-0.586 1.051 0.223 1.414 0.586 0.586 0.861 0.586 1.414zM16 14v-1.333c-0.001-0.83-0.305-1.59-0.81-2.174-0.435-0.502-1.019-0.874-1.686-1.051-0.356-0.094-0.721 0.118-0.815 0.474s0.118 0.721 0.474 0.815c0.405 0.107 0.757 0.332 1.019 0.635 0.303 0.351 0.484 0.804 0.485 1.301v1.333c0 0.368 0.299 0.667 0.667 0.667s0.667-0.299 0.667-0.667zM10.501 2.733c0.535 0.137 0.963 0.477 1.225 0.918s0.354 0.98 0.217 1.515c-0.117 0.459-0.383 0.837-0.737 1.101-0.209 0.157-0.45 0.273-0.709 0.341-0.356 0.093-0.569 0.458-0.475 0.814s0.458 0.569 0.814 0.475c0.425-0.111 0.821-0.303 1.168-0.563 0.589-0.44 1.035-1.075 1.23-1.839 0.228-0.891 0.073-1.793-0.361-2.525s-1.15-1.302-2.041-1.531c-0.357-0.091-0.72 0.124-0.811 0.481s0.124 0.72 0.481 0.811z" />
    <path id="chevron-left" d="M15.707 17.293l-5.293-5.293 5.293-5.293c0.391-0.391 0.391-1.024 0-1.414s-1.024-0.391-1.414 0l-6 6c-0.391 0.391-0.391 1.024 0 1.414l6 6c0.391 0.391 1.024 0.391 1.414 0s0.391-1.024 0-1.414z" />
    <path id="chevron-right" d="M9.707 18.707l6-6c0.391-0.391 0.391-1.024 0-1.414l-6-6c-0.391-0.391-1.024-0.391-1.414 0s-0.391 1.024 0 1.414l5.293 5.293-5.293 5.293c-0.391 0.391-0.391 1.024 0 1.414s1.024 0.391 1.414 0z" />
    <path id="star-filled" d="M8.00001 1.33334L10.06 5.50667L14.6667 6.18L11.3333 9.42667L12.12 14.0133L8.00001 11.8467L3.88001 14.0133L4.66668 9.42667L1.33334 6.18L5.94001 5.50667L8.00001 1.33334Z" fill="#FEBE42" stroke="#FEBE42" stroke-width="2" stroke-linecap="round" stroke-linejoin="round"/>
</svg>
